<svg id="Layer_1" data-name="Layer 1" xmlns="http://www.w3.org/2000/svg" viewBox="0 0 140 140"><defs><style>.cls-1{fill:#ff8700;}</style></defs><path class="cls-1" d="M70,13.38A56.62,56.62,0,1,0,126.62,70,56.64,56.64,0,0,0,70,13.38ZM70,27a54.77,54.77,0,0,1,6.12.45,2.25,2.25,0,0,1,1.81,2.49,2.41,2.41,0,0,1-2.27,2h-.22A43.53,43.53,0,0,0,70,31.5,2.27,2.27,0,1,1,70,27Zm0,61.15A18.12,18.12,0,1,1,88.12,70,18.17,18.17,0,0,1,70,88.12Zm40.77-15.85A2.15,2.15,0,0,1,108.5,70,39,39,0,0,0,91.29,37.84,2.29,2.29,0,1,1,93.78,34,43.47,43.47,0,0,1,113,70a2.14,2.14,0,0,1-2.26,2.27Z"/></svg>