<svg width="60" height="22" viewBox="0 0 60 22" fill="none" xmlns="http://www.w3.org/2000/svg">
<path fill-rule="evenodd" clip-rule="evenodd" d="M12.7027 10.2113C12.6272 9.13615 12.2796 8.09788 11.6924 7.1941C11.1052 6.29031 10.2979 5.5507 9.34623 5.0448C8.39458 4.5389 7.3299 4.28333 6.2523 4.30213C5.17469 4.32093 4.11957 4.61348 3.18614 5.15226V0.108489C3.18615 0.0800426 3.17498 0.0527326 3.15504 0.0324409C3.13511 0.0121491 3.108 0.000499057 3.07956 0H0.106586C0.0781436 0.000499057 0.0510356 0.0121491 0.0310999 0.0324409C0.0111641 0.0527326 -4.37448e-06 0.0800426 1.28532e-09 0.108489V10.5329V10.6604C0.00127343 11.5136 0.174226 12.3578 0.508559 13.1428C0.842891 13.9277 1.33177 14.6374 1.94607 15.2295C2.56038 15.8216 3.28755 16.284 4.08428 16.5892C4.88102 16.8944 5.73102 17.0361 6.58368 17.0059C7.43633 16.9758 8.2742 16.7744 9.04739 16.4137C9.82058 16.0529 10.5133 15.5403 11.0842 14.9063C11.6552 14.2724 12.0927 13.5299 12.3708 12.7233C12.6488 11.9167 12.7617 11.0624 12.7027 10.2113ZM6.36848 13.9608C5.71536 13.9608 5.0769 13.7671 4.53385 13.4043C3.9908 13.0414 3.56754 12.5257 3.3176 11.9223C3.06766 11.3189 3.00227 10.6549 3.12969 10.0143C3.2571 9.37373 3.57161 8.78533 4.03344 8.3235C4.49527 7.86168 5.08367 7.54717 5.72424 7.41975C6.36482 7.29233 7.02879 7.35773 7.63219 7.60767C8.2356 7.85761 8.75134 8.28086 9.1142 8.82392C9.47705 9.36697 9.67073 10.0054 9.67073 10.6585C9.67073 11.5344 9.32281 12.3743 8.70352 12.9936C8.08423 13.6129 7.24429 13.9608 6.36848 13.9608ZM59.901 0.730879H56.9147C56.8601 0.730879 56.8158 0.77519 56.8158 0.829851V16.6349C56.8158 16.6896 56.8601 16.7339 56.9147 16.7339H59.901C59.9557 16.7339 60 16.6896 60 16.6349V0.829851C60 0.77519 59.9557 0.730879 59.901 0.730879ZM33.7762 4.3281C32.1519 4.48762 30.6512 5.26554 29.5846 6.50084C28.518 7.73614 27.9672 9.33424 28.0462 10.9644C28.1252 12.5945 28.8279 14.1319 30.009 15.2583C31.19 16.3847 32.7589 17.0138 34.3909 17.0156C35.4982 17.0174 36.5865 16.7279 37.5466 16.1762C37.4743 17.0765 36.4408 18.6772 34.5261 18.6772C34.0304 18.6727 33.543 18.5494 33.1048 18.3175C32.6667 18.0857 32.2905 17.7521 32.008 17.3448C31.9995 17.3319 31.9879 17.3214 31.9743 17.3141C31.9606 17.3067 31.9454 17.3029 31.93 17.303H28.4716C28.457 17.3025 28.4424 17.3057 28.4292 17.312C28.416 17.3184 28.4045 17.3279 28.3957 17.3397C28.387 17.3514 28.3811 17.3651 28.3788 17.3796C28.3764 17.3941 28.3776 17.4089 28.3822 17.4229C28.5935 18.129 29.9048 21.7072 34.6974 21.7072C40.3959 21.7072 40.6186 16.5873 40.6186 16.5873L40.7061 10.1161C40.6547 6.52262 37.3125 3.99692 33.7762 4.3281ZM34.8611 13.936C34.1827 14.0056 33.4995 13.8634 32.9052 13.5291C32.3109 13.1948 31.8347 12.6847 31.5419 12.0688C31.2491 11.453 31.1542 10.7616 31.2701 10.0897C31.386 9.41772 31.7071 8.79812 32.1892 8.31595C32.6714 7.83379 33.291 7.51271 33.963 7.3968C34.6349 7.28089 35.3263 7.37585 35.9421 7.66862C36.5579 7.96139 37.068 8.43763 37.4024 9.03193C37.7367 9.62623 37.8788 10.3095 37.8093 10.9878C37.7318 11.7433 37.3963 12.449 36.8593 12.986C36.3223 13.5231 35.6166 13.8586 34.8611 13.936ZM13.5668 10.6585C13.5668 7.15452 16.4789 4.29955 20.0685 4.29955C23.6658 4.29955 26.5722 7.1469 26.5779 10.6585V16.9033C26.5779 16.93 26.5672 16.9557 26.5483 16.9746C26.5294 16.9935 26.5037 17.0042 26.477 17.0042H23.5021C23.4748 17.0042 23.4487 16.9933 23.4294 16.9741C23.4102 16.9548 23.3993 16.9286 23.3993 16.9014V15.7251C22.2992 16.7548 21.2867 17.0156 20.0685 17.0156C16.4789 17.0156 13.5668 14.1625 13.5668 10.6585ZM18.3043 13.4042C18.8474 13.7671 19.4858 13.9608 20.139 13.9608C21.0148 13.9608 21.8547 13.6128 22.474 12.9936C23.0933 12.3743 23.4412 11.5343 23.4412 10.6585C23.4412 10.0054 23.2475 9.36694 22.8847 8.82388C22.5218 8.28083 22.0061 7.85758 21.4027 7.60764C20.7993 7.3577 20.1353 7.2923 19.4947 7.41972C18.8541 7.54714 18.2657 7.86165 17.8039 8.32347C17.3421 8.7853 17.0276 9.3737 16.9002 10.0143C16.7727 10.6549 16.8381 11.3188 17.0881 11.9222C17.338 12.5256 17.7613 13.0414 18.3043 13.4042ZM55.0229 11.8424C55.1001 11.4525 55.139 11.056 55.139 10.6585C55.139 7.14694 52.2155 4.29578 48.6106 4.29578C45.0057 4.29578 42.0822 7.15075 42.0822 10.6547C42.0822 14.1587 45.0057 17.0137 48.6106 17.0137C49.9461 17.0232 51.2523 16.6224 52.3525 15.8653C53.4527 15.1082 54.2938 14.0315 54.7621 12.7807C54.7654 12.7713 54.7665 12.7612 54.7651 12.7512C54.7637 12.7413 54.76 12.7318 54.7542 12.7236C54.7485 12.7154 54.7408 12.7087 54.7319 12.7041C54.723 12.6995 54.7131 12.697 54.7031 12.697H51.2505C51.2505 12.697 50.8222 14.0293 48.4621 14.0293C47.8678 14.0451 47.2833 13.8759 46.7893 13.5452C46.2953 13.2145 45.9161 12.7386 45.7042 12.1831L45.6015 11.8424H55.0229ZM51.7606 9.61173H45.5025C45.7215 8.95506 46.1415 8.38393 46.7031 7.97922C47.2646 7.57451 47.9393 7.35674 48.6315 7.35674C49.3237 7.35674 49.9984 7.57451 50.56 7.97922C51.1216 8.38393 51.5416 8.95506 51.7606 9.61173Z" fill="#FF8700"/>
</svg>
