<svg width="16" height="16" viewBox="0 0 16 16" fill="none" xmlns="http://www.w3.org/2000/svg">
<path d="M8 9.16663C7.72667 9.16663 7.5 8.93996 7.5 8.66663V5.16663C7.5 4.89329 7.72667 4.66663 8 4.66663C8.27333 4.66663 8.5 4.89329 8.5 5.16663V8.66663C8.5 8.93996 8.27333 9.16663 8 9.16663Z" fill="#2684FF"/>
<path opacity="0.1" d="M3.75819 4.59163L6.95819 2.63688C7.59826 2.24588 8.4033 2.24588 9.04337 2.63688L12.2434 4.59163C12.8381 4.9549 13.2008 5.60152 13.2008 6.29839V9.70162C13.2008 10.3985 12.8381 11.0451 12.2434 11.4084L9.04337 13.3631C8.4033 13.7541 7.59826 13.7541 6.95819 13.3631L3.75819 11.4084C3.16351 11.0451 2.80078 10.3985 2.80078 9.70162V6.29839C2.80078 5.60152 3.16351 4.9549 3.75819 4.59163Z" fill="#2684FF"/>
<path d="M3.75819 4.59163L6.95819 2.63688C7.59826 2.24588 8.4033 2.24588 9.04337 2.63688L12.2434 4.59163C12.8381 4.9549 13.2008 5.60152 13.2008 6.29839V9.70162C13.2008 10.3985 12.8381 11.0451 12.2434 11.4084L9.04337 13.3631C8.4033 13.7541 7.59826 13.7541 6.95819 13.3631L3.75819 11.4084C3.16351 11.0451 2.80078 10.3985 2.80078 9.70162V6.29839C2.80078 5.60152 3.16351 4.9549 3.75819 4.59163Z" stroke="#2684FF" stroke-width="1.4"/>
<path d="M7.9987 11.4999C7.8187 11.4999 7.65202 11.4333 7.52535 11.3066C7.46535 11.24 7.4187 11.1666 7.3787 11.0866C7.34537 11.0066 7.33203 10.9199 7.33203 10.8333C7.33203 10.6599 7.40535 10.4866 7.52535 10.3599C7.77202 10.1133 8.22538 10.1133 8.47205 10.3599C8.59205 10.4866 8.66536 10.6599 8.66536 10.8333C8.66536 10.9199 8.64535 11.0066 8.61202 11.0866C8.57869 11.1666 8.53205 11.24 8.47205 11.3066C8.34538 11.4333 8.1787 11.4999 7.9987 11.4999Z" fill="#2684FF"/>
</svg>
