<svg width="16" height="16" viewBox="0 0 16 16" fill="none" xmlns="http://www.w3.org/2000/svg">
<path fill-rule="evenodd" clip-rule="evenodd" d="M8 1.5C8.27614 1.5 8.5 1.72386 8.5 2V3.53099C9.69603 3.67826 10.673 4.34817 11.3542 5.49461C12.1128 6.77153 12.5 8.62502 12.5 11H13C13.2761 11 13.5 11.2239 13.5 11.5C13.5 11.7761 13.2761 12 13 12H3C2.72386 12 2.5 11.7761 2.5 11.5C2.5 11.2239 2.72386 11 3 11H3.50107C3.48557 8.62609 3.86439 6.77293 4.61897 5.49568C5.30253 4.33864 6.29029 3.66707 7.5 3.5274V2C7.5 1.72386 7.72386 1.5 8 1.5ZM4.50108 11H11.5C11.5 8.70831 11.1221 7.0618 10.4944 6.00539C9.88466 4.97902 9.03818 4.5 7.98494 4.5C6.93154 4.5 6.08564 4.97908 5.47995 6.00432C4.85639 7.0598 4.48576 8.7055 4.50107 10.9967L4.50108 11Z" fill="#5C5CEB"/>
<path d="M7 12.5C6.72386 12.5 6.5 12.7239 6.5 13C6.5 13.2761 6.72386 13.5 7 13.5H9C9.27614 13.5 9.5 13.2761 9.5 13C9.5 12.7239 9.27614 12.5 9 12.5H7Z" fill="#5C5CEB"/>
</svg>
