<svg width="100" height="100" viewBox="0 0 100 100" fill="none" xmlns="http://www.w3.org/2000/svg">
<path d="M26 25C26 22.7909 27.7909 21 30 21H39C41.2091 21 43 22.7909 43 25V34C43 36.2091 41.2091 38 39 38H30C27.7909 38 26 36.2091 26 34V25Z" fill="#DADAF3"/>
<path d="M26 56C26 53.7909 27.7909 52 30 52H39C41.2091 52 43 53.7909 43 56V65C43 67.2091 41.2091 69 39 69H30C27.7909 69 26 67.2091 26 65V56Z" fill="#DADAF3"/>
<rect x="48" y="23" width="45" height="4" rx="1" fill="#DADAF3"/>
<rect x="48" y="54" width="45" height="4" rx="1" fill="#DADAF3"/>
<rect x="48" y="30" width="36" height="4" rx="1" fill="#DADAF3"/>
<path d="M69.9919 34H49C48.4477 34 48 33.5523 48 33V31C48 30.4477 48.4477 30 49 30H68.6739C69.1975 31.2935 69.639 32.629 69.9919 34Z" fill="#5C5CEB" fill-opacity="0.2"/>
<rect x="48" y="61" width="36" height="4" rx="1" fill="#DADAF3"/>
<path d="M64.7514 23C65.6864 24.2652 66.5304 25.6018 67.2738 27H49C48.4477 27 48 26.5523 48 26V24C48 23.4477 48.4477 23 49 23H64.7514Z" fill="#5C5CEB" fill-opacity="0.2"/>
<path d="M64.7514 61C63.6952 62.429 62.523 63.767 61.2486 65H49C48.4477 65 48 64.5523 48 64V62C48 61.4477 48.4477 61 49 61H64.7514Z" fill="#5C5CEB" fill-opacity="0.2"/>
<path d="M68.6739 54C68.1137 55.3841 67.4594 56.7201 66.719 58H49C48.4477 58 48 57.5523 48 57V55C48 54.4477 48.4477 54 49 54H68.6739Z" fill="#5C5CEB" fill-opacity="0.2"/>
<path fill-rule="evenodd" clip-rule="evenodd" d="M72.0744 69.8317C77.6499 63.0867 81 54.4346 81 45C81 23.4609 63.5391 6 42 6C20.4609 6 3 23.4609 3 45C3 66.5391 20.4609 84 42 84C51.9445 84 61.0197 80.278 67.9084 74.1511L90.8787 97.1213C92.0502 98.2929 93.9497 98.2929 95.1213 97.1213C96.2929 95.9497 96.2929 94.0502 95.1213 92.8787L72.0744 69.8317ZM77 45C77 64.33 61.33 80 42 80C22.67 80 7 64.33 7 45C7 25.67 22.67 10 42 10C61.33 10 77 25.67 77 45Z" fill="#B6B6EE"/>
</svg>
