<?xml version="1.0" encoding="UTF-8"?>
<svg xmlns="http://www.w3.org/2000/svg" xmlns:xlink="http://www.w3.org/1999/xlink" width="34px" height="34px" viewBox="0 0 34 34" version="1.1">
<g id="surface1">
<path style=" stroke:none;fill-rule:nonzero;fill:rgb(100%,52.941176%,0%);fill-opacity:1;" d="M 17 3.25 C 9.40625 3.25 3.25 9.40625 3.25 17 C 3.25 24.59375 9.40625 30.75 17 30.75 C 24.59375 30.75 30.75 24.59375 30.75 17 C 30.746094 9.40625 24.59375 3.253906 17 3.25 Z M 17 6.558594 C 17.496094 6.566406 17.992188 6.601562 18.484375 6.667969 C 18.769531 6.71875 18.960938 6.984375 18.925781 7.269531 C 18.878906 7.542969 18.648438 7.746094 18.375 7.757812 L 18.320312 7.757812 C 17.882812 7.695312 17.441406 7.65625 17 7.648438 C 16.789062 7.679688 16.578125 7.582031 16.460938 7.398438 C 16.347656 7.21875 16.347656 6.988281 16.460938 6.808594 C 16.578125 6.625 16.789062 6.527344 17 6.558594 Z M 17 21.40625 C 14.570312 21.40625 12.601562 19.4375 12.597656 17.007812 C 12.597656 14.582031 14.566406 12.609375 16.996094 12.605469 C 19.425781 12.605469 21.398438 14.570312 21.402344 17 C 21.394531 19.425781 19.425781 21.394531 17 21.402344 Z M 26.902344 17.558594 C 26.75 17.566406 26.605469 17.511719 26.5 17.402344 C 26.394531 17.296875 26.339844 17.148438 26.351562 17 C 26.335938 13.867188 24.769531 10.941406 22.171875 9.191406 C 21.996094 9.085938 21.890625 8.894531 21.898438 8.691406 C 21.90625 8.488281 22.027344 8.304688 22.207031 8.214844 C 22.390625 8.121094 22.609375 8.140625 22.773438 8.257812 C 25.6875 10.214844 27.4375 13.492188 27.441406 17 C 27.453125 17.148438 27.398438 17.292969 27.292969 17.398438 C 27.1875 17.503906 27.042969 17.558594 26.894531 17.550781 Z M 26.902344 17.558594 "/>
</g>
</svg>
