<?xml version="1.0" encoding="UTF-8"?>
<svg xmlns="http://www.w3.org/2000/svg" xmlns:xlink="http://www.w3.org/1999/xlink" width="128px" height="128px" viewBox="0 0 128 128" version="1.1">
<g id="surface1">
<path style=" stroke:none;fill-rule:nonzero;fill:rgb(100%,52.941176%,0%);fill-opacity:1;" d="M 64 12.234375 C 35.410156 12.234375 12.234375 35.410156 12.234375 64 C 12.234375 92.589844 35.410156 115.765625 64 115.765625 C 92.589844 115.765625 115.765625 92.589844 115.765625 64 C 115.757812 35.414062 92.585938 12.242188 64 12.234375 Z M 64 24.6875 C 65.871094 24.71875 67.738281 24.855469 69.59375 25.097656 C 70.660156 25.300781 71.386719 26.296875 71.25 27.375 C 71.074219 28.394531 70.210938 29.15625 69.175781 29.203125 L 68.972656 29.203125 C 67.324219 28.964844 65.664062 28.828125 64 28.800781 C 63.199219 28.90625 62.410156 28.539062 61.976562 27.859375 C 61.542969 27.179688 61.542969 26.308594 61.976562 25.625 C 62.410156 24.945312 63.199219 24.578125 64 24.6875 Z M 64 80.59375 C 54.855469 80.59375 47.4375 73.183594 47.433594 64.035156 C 47.429688 54.890625 54.835938 47.46875 63.980469 47.460938 C 73.128906 47.449219 80.550781 54.855469 80.566406 64 C 80.542969 73.140625 73.140625 80.542969 64 80.566406 Z M 101.277344 66.101562 C 100.710938 66.136719 100.160156 65.925781 99.761719 65.519531 C 99.363281 65.117188 99.160156 64.5625 99.199219 64 C 99.144531 52.199219 93.253906 41.191406 83.464844 34.597656 C 82.804688 34.203125 82.414062 33.484375 82.445312 32.714844 C 82.472656 31.949219 82.921875 31.261719 83.609375 30.921875 C 84.296875 30.582031 85.113281 30.644531 85.742188 31.085938 C 96.707031 38.453125 103.289062 50.789062 103.3125 64 C 103.347656 64.558594 103.144531 65.105469 102.75 65.503906 C 102.351562 65.898438 101.808594 66.109375 101.246094 66.074219 Z M 101.277344 66.101562 "/>
</g>
</svg>
